# This file uses centimeters as units for non-parametric coordinates.

mtllib bird plane exp.mtl
g default
v -0.000270 2.098559 8.899885
v 7.887129 0.299905 3.001106
v -0.000270 2.297004 8.899885
v 2.027044 2.467282 0.000270
v -2.027044 2.467282 -0.000270
v 0.000270 1.950607 -3.570625
v -8.382750 0.299905 2.970653
v 0.000270 0.606043 -4.955876
v -0.980948 0.299905 3.269251
v -0.980948 2.467282 3.269251
v 1.046365 2.409322 -0.980670
v 1.046365 0.589571 -0.980670
v 1.023693 0.299905 3.226500
v 1.023693 2.467282 3.226500
v 0.043014 3.166578 0.022414
v -1.003081 2.333691 -1.023960
v -1.003081 0.589571 -1.023960
v 0.043014 0.833877 0.071263
v 7.887129 1.063157 3.001106
v 1.023693 1.762453 3.226500
v -0.000270 2.210926 8.899885
v -0.980948 1.762453 3.269251
v -8.382750 1.063157 2.970653
v -1.003081 1.584823 -1.023960
v 0.000270 0.886858 -4.955876
v 1.046365 1.437302 -0.980670
v -0.442627 0.299905 6.786789
v -0.442627 1.182421 6.786789
v -0.442627 1.604358 6.786789
v 0.581336 2.782715 1.781225
v 1.584687 2.441138 -0.442205
v 4.620743 1.378591 -0.988098
v 4.620743 0.299905 -0.988098
v 0.581336 0.299905 1.803259
v 0.469261 0.299905 6.719317
v 0.469261 1.190315 6.719317
v 0.469261 1.607027 6.719317
v 0.026904 1.838949 4.491524
v -0.511418 2.787939 1.780437
v -1.557513 2.440705 -0.469676
v -4.660150 1.383815 -1.045374
v -4.660150 0.299905 -1.045374
v -0.511418 0.299905 1.802837
v 0.026904 0.299905 4.501628
vt 0.375000 0.000000
vt 0.625000 0.000000
vt 0.375000 0.250000
vt 0.625000 0.250000
vt 0.375000 0.500000
vt 0.625000 0.500000
vt 0.375000 0.750000
vt 0.625000 0.750000
vt 0.375000 1.000000
vt 0.625000 1.000000
vt 0.875000 0.000000
vt 0.875000 0.250000
vt 0.125000 0.000000
vt 0.125000 0.250000
vt 0.254035 0.000000
vt 0.375000 0.879035
vt 0.254035 0.250000
vt 0.375000 0.370965
vt 0.625000 0.370965
vt 0.745965 0.250000
vt 0.625000 0.879035
vt 0.745965 0.000000
vt 0.501271 0.000000
vt 0.501271 1.000000
vt 0.501271 0.250000
vt 0.501271 0.370965
vt 0.501271 0.500000
vt 0.501271 0.750000
vt 0.501271 0.879035
vt 0.625000 0.127548
vt 0.501271 0.127548
vt 0.375000 0.127548
vt 0.254035 0.127548
vt 0.125000 0.127548
vt 0.375000 0.622452
vt 0.501271 0.622452
vt 0.625000 0.622452
vt 0.875000 0.127548
vt 0.745965 0.127548
vt 0.320436 0.000000
vt 0.375000 0.945436
vt 0.320436 0.127548
vt 0.320436 0.250000
vt 0.375000 0.304564
vt 0.501271 0.304564
vt 0.625000 0.304564
vt 0.679564 0.250000
vt 0.679564 0.127548
vt 0.625000 0.945436
vt 0.679564 0.000000
vt 0.501271 0.945436
vt 0.432901 0.000000
vt 0.432901 1.000000
vt 0.432901 0.127548
vt 0.432901 0.250000
vt 0.432901 0.304564
vt 0.432901 0.370965
vt 0.432901 0.500000
vt 0.432901 0.622452
vt 0.432901 0.750000
vt 0.432901 0.879035
vt 0.432901 0.945436
vn 0.977594 0.000000 0.210501
vn 0.986474 0.000000 0.163916
vn 0.985647 0.000000 0.168819
vn 0.977594 0.000000 0.210501
vn 0.224373 0.956472 0.186599
vn -0.107684 0.983196 0.147410
vn -0.333417 0.942066 -0.036661
vn -0.240763 0.970113 0.030231
vn -0.703350 0.326657 -0.631343
vn -0.425405 0.668844 -0.609654
vn -0.463597 0.000000 -0.886046
vn -0.733391 0.000000 -0.679807
vn 0.000000 -1.000000 0.000000
vn 0.015003 -0.999799 -0.013301
vn 0.023042 -0.999122 -0.034997
vn 0.000000 -1.000000 -0.000000
vn 0.468154 0.000000 -0.883647
vn 0.967075 0.000000 -0.254491
vn 0.957490 0.071676 -0.279419
vn 0.600847 0.189966 -0.776463
vn -0.040309 0.000000 0.999187
vn -0.449019 0.000000 0.893522
vn -0.445424 0.644992 0.620954
vn -0.104042 0.350523 0.930757
vn -0.987433 0.000000 0.158036
vn -0.986636 0.000000 0.162941
vn 0.043196 0.997682 -0.052585
vn 0.007020 0.977192 0.212240
vn 0.504629 0.000000 -0.863336
vn 0.454796 0.667797 -0.589243
vn 0.001613 -0.999901 0.014014
vn 0.024130 -0.945021 0.326118
vn 0.465462 0.000000 0.885068
vn 0.032822 0.000000 0.999461
vn 0.104336 0.361255 0.926612
vn 0.465514 0.633055 0.618497
vn -0.007733 0.991903 -0.126765
vn 0.113875 0.981312 0.155113
vn 0.351071 0.936112 -0.021078
vn 0.110120 0.963162 -0.245341
vn -0.143659 0.957308 -0.250844
vn -0.028184 0.946952 -0.320136
vn -0.471866 0.000000 -0.881671
vn -0.585120 0.200869 -0.785676
vn -0.961347 0.062226 -0.268215
vn -0.968950 0.000000 -0.247258
vn 0.000788 -0.996117 -0.088041
vn 0.082221 -0.995140 -0.054183
vn -0.000957 -0.998974 0.045283
vn -0.083161 -0.995117 -0.053158
vn -0.023813 -0.999051 -0.036456
vn -0.016642 -0.999755 -0.014609
vn 0.201526 0.941973 0.268465
vn 0.329699 0.901989 0.278773
vn 0.985621 0.000000 0.168970
vn 0.977594 0.000000 0.210501
vn -0.986594 0.000000 0.163196
vn -0.311008 0.909966 0.274291
vn -0.190026 0.945446 0.264615
vn -0.296811 0.930088 -0.216423
vn -0.257847 0.845885 -0.466898
vn -0.619295 0.412975 -0.667777
vn -0.913005 0.247711 -0.324132
vn 0.918506 0.222443 -0.326903
vn 0.647179 0.358108 -0.672992
vn 0.266732 0.818331 -0.509106
vn -0.978783 0.000000 0.204899
vn -0.978783 0.000000 0.204899
vn -0.978783 0.000000 0.204899
vn -0.010563 0.994583 -0.103408
vn -0.058691 0.996788 -0.054493
vn -0.224295 0.956317 0.187483
vn 0.249705 0.967816 0.031287
vn 0.737123 0.341064 -0.583374
vn 0.312912 0.928210 -0.201276
vn 0.773720 0.000000 -0.633527
vn 0.000000 -1.000000 0.000000
vn 0.000000 -1.000000 0.000000
vn 0.024275 -0.944341 0.328070
vn 0.028008 -0.925170 0.378518
s 1
g pCube4
usemtl initialShadingGroup
f 1/1/1 35/52/2 36/54/3 21/32/4
s 2
f 10/18/5 39/57/6 40/58/7 5/5/8
s 3
f 23/35/9 41/59/10 42/60/11 7/7/12
s 4
f 7/7/13 42/60/14 43/61/15 9/16/16
s 5
f 12/22/17 8/11/18 25/38/19 26/39/20
s 6
f 7/13/21 9/15/22 22/33/23 23/34/24
f 9/15/22 27/40/25 28/42/26 22/33/23
s 2
f 29/44/27 38/56/28 39/57/6 10/18/5
s 5
f 33/50/29 12/22/17 26/39/20 32/48/30
s 4
f 9/16/16 43/61/15 44/62/31 27/41/32
s 1
f 13/23/33 2/2/34 19/30/35 20/31/36
s 2
f 15/26/37 30/45/38 31/46/39 11/19/40
f 16/27/41 15/26/37 11/19/40 6/6/42
s 3
f 17/28/43 24/36/44 25/37/45 8/8/46
s 4
f 18/29/47 17/28/48 8/8/49 12/21/50
f 34/51/51 18/29/47 12/21/50 33/49/52
s 1
f 20/31/36 19/30/35 4/4/53 14/25/54
f 21/32/4 36/54/3 37/55/55 3/3/56
s 6
f 22/33/23 28/42/26 29/43/57 10/17/58
f 23/34/24 22/33/23 10/17/58 5/14/59
s 3
f 5/5/60 40/58/61 41/59/10 23/35/9
f 25/37/45 24/36/44 16/27/62 6/6/63
s 5
f 26/39/20 25/38/19 6/12/64 11/20/65
f 32/48/30 26/39/20 11/20/65 31/47/66
s 6
f 27/40/25 1/1/67 21/32/68 28/42/26
f 29/43/57 28/42/26 21/32/68 3/3/69
s 2
f 3/3/70 37/55/71 38/56/28 29/44/27
f 31/46/39 30/45/38 14/25/72 4/4/73
s 5
f 19/30/74 32/48/30 31/47/66 4/4/75
f 2/2/76 33/50/29 32/48/30 19/30/74
s 4
f 13/24/77 34/51/51 33/49/52 2/10/78
f 27/41/32 44/62/31 35/53/79 1/9/80
s 1
f 35/52/2 13/23/33 20/31/36 36/54/3
f 37/55/55 36/54/3 20/31/36 14/25/54
s 2
f 38/56/28 37/55/71 14/25/72 30/45/38
f 39/57/6 38/56/28 30/45/38 15/26/37
f 40/58/7 39/57/6 15/26/37 16/27/41
s 3
f 41/59/10 40/58/61 16/27/62 24/36/44
f 42/60/11 41/59/10 24/36/44 17/28/43
s 4
f 43/61/15 42/60/14 17/28/48 18/29/47
f 44/62/31 43/61/15 18/29/47 34/51/51
f 35/53/79 44/62/31 34/51/51 13/24/77
